<svg width="40" height="41" viewBox="0 0 40 41" fill="none" xmlns="http://www.w3.org/2000/svg">
<mask id="mask0_428_7" style="mask-type:luminance" maskUnits="userSpaceOnUse" x="0" y="0" width="40" height="41">
<path d="M0 0H40V41H0V0Z" fill="white"/>
</mask>
<g mask="url(#mask0_428_7)">
<path fill-rule="evenodd" clip-rule="evenodd" d="M13.715 0.515828C11.458 0.515828 9.29501 1.41183 7.69901 3.00783L6.7082e-06 10.7068V14.2308C6.7082e-06 16.7208 1.07001 18.9608 2.77401 20.5158C1.89888 21.3123 1.2 22.2829 0.722271 23.3655C0.244541 24.448 -0.00148113 25.6185 6.7082e-06 26.8018V30.3258L7.69901 38.0238C8.51218 38.8371 9.48182 39.4771 10.5493 39.9051C11.6168 40.333 12.76 40.5401 13.9098 40.5137C15.0596 40.4874 16.1921 40.2281 17.2389 39.7517C18.2857 39.2753 19.225 38.5915 20 37.7418C20.7751 38.5914 21.7145 39.275 22.7612 39.7514C23.808 40.2277 24.9405 40.4869 26.0902 40.5133C27.24 40.5396 28.3831 40.3326 29.4506 39.9047C30.5181 39.4769 31.4878 38.837 32.301 38.0238L40 30.3258V26.8018C40 24.3118 38.93 22.0718 37.226 20.5158C38.101 19.7195 38.7998 18.749 39.2775 17.6666C39.7553 16.5843 40.0014 15.4139 40 14.2308V10.7068L32.301 3.00683C31.4877 2.19372 30.518 1.55393 29.4504 1.12614C28.3829 0.698347 27.2397 0.491424 26.09 0.517876C24.9402 0.544327 23.8078 0.803604 22.7611 1.28004C21.7143 1.75647 20.7751 2.44017 20 3.28983C19.2037 2.41482 18.2332 1.71602 17.1508 1.23829C16.0684 0.760569 14.8981 0.514479 13.715 0.515828ZM25.759 20.5158C25.663 20.428 25.5689 20.338 25.477 20.2458L20 14.7698L14.523 20.2468C14.4311 20.339 14.3371 20.429 14.241 20.5168C14.337 20.6038 14.431 20.6938 14.523 20.7858L20 26.2618L25.477 20.7858C25.569 20.6928 25.663 20.6038 25.759 20.5158ZM22.222 30.3258V32.0078C22.2218 32.8115 22.4599 33.5972 22.9063 34.2655C23.3527 34.9338 23.9872 35.4548 24.7297 35.7624C25.4722 36.0701 26.2892 36.1506 27.0774 35.9939C27.8657 35.8371 28.5897 35.4501 29.158 34.8818L35.556 28.4848V26.8018C35.5564 25.9979 35.3183 25.212 34.8719 24.5435C34.4255 23.8749 33.7908 23.3539 33.0481 23.0462C32.3055 22.7385 31.4882 22.658 30.6998 22.815C29.9114 22.9719 29.1872 23.3592 28.619 23.9278L22.222 30.3258ZM17.778 30.3258L11.381 23.9278C10.8128 23.3593 10.0888 22.972 9.30047 22.815C8.51215 22.658 7.69498 22.7384 6.95235 23.046C6.20972 23.3535 5.57501 23.8745 5.12851 24.5428C4.68201 25.2112 4.4438 25.997 4.44401 26.8008V28.4848L10.841 34.8818C11.4092 35.4504 12.1332 35.8377 12.9215 35.9946C13.7099 36.1516 14.527 36.0712 15.2697 35.7637C16.0123 35.4561 16.647 34.9352 17.0935 34.2668C17.54 33.5984 17.7782 32.8126 17.778 32.0088V30.3258ZM17.778 9.02383V10.7068L11.381 17.1038C10.8128 17.6724 10.0888 18.0597 9.30047 18.2166C8.51215 18.3736 7.69498 18.2932 6.95235 17.9857C6.20972 17.6781 5.57501 17.1572 5.12851 16.4888C4.68201 15.8204 4.4438 15.0346 4.44401 14.2308V12.5478L10.841 6.15083C11.4092 5.58225 12.1332 5.19498 12.9215 5.03801C13.7099 4.88103 14.527 4.96141 15.2697 5.26898C16.0123 5.57654 16.647 6.09747 17.0935 6.76585C17.54 7.43423 17.7782 8.22003 17.778 9.02383ZM28.619 17.1038L22.222 10.7068V9.02383C22.222 8.22023 22.4603 7.43469 22.9067 6.76652C23.3532 6.09835 23.9877 5.57758 24.7302 5.27006C25.4726 4.96253 26.2895 4.88207 27.0777 5.03885C27.8658 5.19563 28.5898 5.5826 29.158 6.15083L35.556 12.5478V14.2308C35.5562 15.0346 35.318 15.8204 34.8715 16.4888C34.425 17.1572 33.7903 17.6781 33.0477 17.9857C32.305 18.2932 31.4879 18.3736 30.6995 18.2166C29.9112 18.0597 29.1872 17.6724 28.619 17.1038Z" fill="#C7231A"/>
</g>
</svg>
